<mxfile host="app.diagrams.net" modified="2021-04-21T01:22:34.393Z" agent="5.0 (Macintosh; Intel Mac OS X 11_2_3) AppleWebKit/537.36 (KHTML, like Gecko) Chrome/89.0.4389.128 Safari/537.36" etag="BK40PaMCj7XemmJMnciZ" version="14.6.1" type="github">
  <diagram id="E9PwS70kOqN_t-g_kOdZ" name="Page-1">
    <mxGraphModel dx="1554" dy="912" grid="1" gridSize="10" guides="1" tooltips="1" connect="1" arrows="1" fold="1" page="1" pageScale="1" pageWidth="850" pageHeight="1100" math="0" shadow="0">
      <root>
        <mxCell id="0" />
        <mxCell id="1" parent="0" />
        <mxCell id="LAA-UziBqk9yYyZqlUCW-1" value="Control Plane" style="whiteSpace=wrap;html=1;aspect=fixed;align=left;labelPosition=center;verticalLabelPosition=top;verticalAlign=bottom;" vertex="1" parent="1">
          <mxGeometry x="20" y="160" width="390" height="390" as="geometry" />
        </mxCell>
        <mxCell id="LAA-UziBqk9yYyZqlUCW-2" value="Worker Node" style="whiteSpace=wrap;html=1;aspect=fixed;align=left;labelPosition=center;verticalLabelPosition=top;verticalAlign=bottom;" vertex="1" parent="1">
          <mxGeometry x="620" y="510" width="220" height="220" as="geometry" />
        </mxCell>
        <mxCell id="LAA-UziBqk9yYyZqlUCW-31" style="edgeStyle=orthogonalEdgeStyle;rounded=0;orthogonalLoop=1;jettySize=auto;html=1;entryX=0.5;entryY=1;entryDx=0;entryDy=0;entryPerimeter=0;startArrow=classic;startFill=1;" edge="1" parent="1" source="LAA-UziBqk9yYyZqlUCW-7" target="LAA-UziBqk9yYyZqlUCW-36">
          <mxGeometry relative="1" as="geometry">
            <mxPoint x="439.0117399999999" y="218.03999999999996" as="targetPoint" />
            <Array as="points">
              <mxPoint x="375" y="255" />
              <mxPoint x="375" y="218" />
              <mxPoint x="485" y="218" />
            </Array>
          </mxGeometry>
        </mxCell>
        <mxCell id="LAA-UziBqk9yYyZqlUCW-37" value="1c. Authenticate Request&amp;nbsp;" style="edgeLabel;html=1;align=center;verticalAlign=middle;resizable=0;points=[];" vertex="1" connectable="0" parent="LAA-UziBqk9yYyZqlUCW-31">
          <mxGeometry x="-0.3459" y="2" relative="1" as="geometry">
            <mxPoint as="offset" />
          </mxGeometry>
        </mxCell>
        <mxCell id="LAA-UziBqk9yYyZqlUCW-38" style="edgeStyle=orthogonalEdgeStyle;rounded=0;orthogonalLoop=1;jettySize=auto;html=1;startArrow=none;startFill=0;exitX=0.75;exitY=1;exitDx=0;exitDy=0;entryX=0.75;entryY=0;entryDx=0;entryDy=0;" edge="1" parent="1" source="LAA-UziBqk9yYyZqlUCW-7" target="LAA-UziBqk9yYyZqlUCW-16">
          <mxGeometry relative="1" as="geometry">
            <Array as="points">
              <mxPoint x="173" y="300" />
              <mxPoint x="340" y="300" />
              <mxPoint x="340" y="500" />
              <mxPoint x="180" y="500" />
            </Array>
          </mxGeometry>
        </mxCell>
        <mxCell id="LAA-UziBqk9yYyZqlUCW-39" value="2. Define the new Workload definition" style="edgeLabel;html=1;align=center;verticalAlign=middle;resizable=0;points=[];" vertex="1" connectable="0" parent="LAA-UziBqk9yYyZqlUCW-38">
          <mxGeometry x="0.0333" y="-1" relative="1" as="geometry">
            <mxPoint x="-9" y="78" as="offset" />
          </mxGeometry>
        </mxCell>
        <mxCell id="LAA-UziBqk9yYyZqlUCW-40" style="edgeStyle=orthogonalEdgeStyle;rounded=0;orthogonalLoop=1;jettySize=auto;html=1;entryX=0.005;entryY=0.63;entryDx=0;entryDy=0;entryPerimeter=0;startArrow=none;startFill=0;exitX=0.75;exitY=0;exitDx=0;exitDy=0;" edge="1" parent="1" source="LAA-UziBqk9yYyZqlUCW-7" target="LAA-UziBqk9yYyZqlUCW-18">
          <mxGeometry relative="1" as="geometry">
            <mxPoint x="440" y="300" as="sourcePoint" />
            <Array as="points">
              <mxPoint x="173" y="210" />
              <mxPoint x="510" y="210" />
              <mxPoint x="510" y="700" />
            </Array>
          </mxGeometry>
        </mxCell>
        <mxCell id="LAA-UziBqk9yYyZqlUCW-41" value="4b. Create a deployment" style="edgeLabel;html=1;align=center;verticalAlign=middle;resizable=0;points=[];" vertex="1" connectable="0" parent="LAA-UziBqk9yYyZqlUCW-40">
          <mxGeometry x="-0.2004" y="-2" relative="1" as="geometry">
            <mxPoint as="offset" />
          </mxGeometry>
        </mxCell>
        <mxCell id="LAA-UziBqk9yYyZqlUCW-7" value="&lt;span style=&quot;background-color: rgb(255 , 255 , 255)&quot;&gt;Kube-API&lt;/span&gt;" style="rounded=1;whiteSpace=wrap;html=1;align=left;arcSize=0;" vertex="1" parent="1">
          <mxGeometry x="90" y="240" width="110" height="40" as="geometry" />
        </mxCell>
        <mxCell id="LAA-UziBqk9yYyZqlUCW-48" value="" style="edgeStyle=orthogonalEdgeStyle;rounded=0;orthogonalLoop=1;jettySize=auto;html=1;startArrow=none;startFill=0;" edge="1" parent="1" source="LAA-UziBqk9yYyZqlUCW-10" target="LAA-UziBqk9yYyZqlUCW-7">
          <mxGeometry relative="1" as="geometry" />
        </mxCell>
        <mxCell id="LAA-UziBqk9yYyZqlUCW-51" value="4a. Deploy pod" style="edgeStyle=orthogonalEdgeStyle;rounded=0;orthogonalLoop=1;jettySize=auto;html=1;exitX=0.25;exitY=0;exitDx=0;exitDy=0;entryX=0;entryY=1;entryDx=0;entryDy=0;startArrow=none;startFill=0;" edge="1" parent="1" source="LAA-UziBqk9yYyZqlUCW-10" target="LAA-UziBqk9yYyZqlUCW-7">
          <mxGeometry relative="1" as="geometry" />
        </mxCell>
        <mxCell id="LAA-UziBqk9yYyZqlUCW-10" value="Scheduler" style="rounded=1;whiteSpace=wrap;html=1;align=left;" vertex="1" parent="1">
          <mxGeometry x="90" y="330" width="120" height="30" as="geometry" />
        </mxCell>
        <mxCell id="LAA-UziBqk9yYyZqlUCW-43" value="3a. Check states" style="edgeStyle=orthogonalEdgeStyle;rounded=0;orthogonalLoop=1;jettySize=auto;html=1;exitX=0.5;exitY=1;exitDx=0;exitDy=0;startArrow=none;startFill=0;" edge="1" parent="1" source="LAA-UziBqk9yYyZqlUCW-15">
          <mxGeometry relative="1" as="geometry">
            <mxPoint x="170" y="508" as="targetPoint" />
          </mxGeometry>
        </mxCell>
        <mxCell id="LAA-UziBqk9yYyZqlUCW-44" style="edgeStyle=orthogonalEdgeStyle;rounded=0;orthogonalLoop=1;jettySize=auto;html=1;exitX=0.75;exitY=0;exitDx=0;exitDy=0;entryX=0.591;entryY=1.025;entryDx=0;entryDy=0;entryPerimeter=0;startArrow=none;startFill=0;" edge="1" parent="1" source="LAA-UziBqk9yYyZqlUCW-15" target="LAA-UziBqk9yYyZqlUCW-7">
          <mxGeometry relative="1" as="geometry">
            <Array as="points">
              <mxPoint x="180" y="390" />
              <mxPoint x="270" y="390" />
              <mxPoint x="270" y="320" />
              <mxPoint x="155" y="320" />
            </Array>
          </mxGeometry>
        </mxCell>
        <mxCell id="LAA-UziBqk9yYyZqlUCW-45" value="3b. deployment is not in cluster" style="edgeLabel;html=1;align=center;verticalAlign=middle;resizable=0;points=[];" vertex="1" connectable="0" parent="LAA-UziBqk9yYyZqlUCW-44">
          <mxGeometry x="-0.7143" relative="1" as="geometry">
            <mxPoint x="50" y="-10" as="offset" />
          </mxGeometry>
        </mxCell>
        <mxCell id="LAA-UziBqk9yYyZqlUCW-47" style="edgeStyle=orthogonalEdgeStyle;rounded=0;orthogonalLoop=1;jettySize=auto;html=1;exitX=0.25;exitY=0;exitDx=0;exitDy=0;entryX=0.25;entryY=1;entryDx=0;entryDy=0;startArrow=none;startFill=0;" edge="1" parent="1" source="LAA-UziBqk9yYyZqlUCW-15" target="LAA-UziBqk9yYyZqlUCW-10">
          <mxGeometry relative="1" as="geometry" />
        </mxCell>
        <mxCell id="LAA-UziBqk9yYyZqlUCW-49" value="4. Schedule to deploy&lt;br&gt;new workload" style="edgeLabel;html=1;align=center;verticalAlign=middle;resizable=0;points=[];" vertex="1" connectable="0" parent="LAA-UziBqk9yYyZqlUCW-47">
          <mxGeometry x="-0.08" y="-1" relative="1" as="geometry">
            <mxPoint x="-31" as="offset" />
          </mxGeometry>
        </mxCell>
        <mxCell id="LAA-UziBqk9yYyZqlUCW-50" value="" style="edgeStyle=orthogonalEdgeStyle;rounded=0;orthogonalLoop=1;jettySize=auto;html=1;startArrow=none;startFill=0;" edge="1" parent="1" source="LAA-UziBqk9yYyZqlUCW-15" target="LAA-UziBqk9yYyZqlUCW-10">
          <mxGeometry relative="1" as="geometry" />
        </mxCell>
        <mxCell id="LAA-UziBqk9yYyZqlUCW-15" value="Control Manager" style="rounded=1;whiteSpace=wrap;html=1;align=left;" vertex="1" parent="1">
          <mxGeometry x="90" y="410" width="120" height="34" as="geometry" />
        </mxCell>
        <mxCell id="LAA-UziBqk9yYyZqlUCW-16" value="Etcd" style="rounded=1;whiteSpace=wrap;html=1;align=left;" vertex="1" parent="1">
          <mxGeometry x="90" y="510" width="120" height="30" as="geometry" />
        </mxCell>
        <mxCell id="LAA-UziBqk9yYyZqlUCW-17" value="" style="html=1;dashed=0;whitespace=wrap;fillColor=#2875E2;strokeColor=#ffffff;points=[[0.005,0.63,0],[0.1,0.2,0],[0.9,0.2,0],[0.5,0,0],[0.995,0.63,0],[0.72,0.99,0],[0.5,1,0],[0.28,0.99,0]];shape=mxgraph.kubernetes.icon;prIcon=etcd;align=left;" vertex="1" parent="1">
          <mxGeometry x="20" y="492" width="50" height="48" as="geometry" />
        </mxCell>
        <mxCell id="LAA-UziBqk9yYyZqlUCW-42" value="4c. Register ClusterIP" style="edgeStyle=orthogonalEdgeStyle;rounded=0;orthogonalLoop=1;jettySize=auto;html=1;exitX=0.9;exitY=0.2;exitDx=0;exitDy=0;exitPerimeter=0;entryX=0.28;entryY=0.99;entryDx=0;entryDy=0;entryPerimeter=0;startArrow=none;startFill=0;" edge="1" parent="1" source="LAA-UziBqk9yYyZqlUCW-18" target="LAA-UziBqk9yYyZqlUCW-20">
          <mxGeometry relative="1" as="geometry">
            <Array as="points">
              <mxPoint x="675" y="620" />
              <mxPoint x="784" y="620" />
            </Array>
          </mxGeometry>
        </mxCell>
        <mxCell id="LAA-UziBqk9yYyZqlUCW-18" value="" style="html=1;dashed=0;whitespace=wrap;fillColor=#2875E2;strokeColor=#ffffff;points=[[0.005,0.63,0],[0.1,0.2,0],[0.9,0.2,0],[0.5,0,0],[0.995,0.63,0],[0.72,0.99,0],[0.5,1,0],[0.28,0.99,0]];shape=mxgraph.kubernetes.icon;prIcon=kubelet;align=left;" vertex="1" parent="1">
          <mxGeometry x="630" y="670" width="50" height="48" as="geometry" />
        </mxCell>
        <mxCell id="LAA-UziBqk9yYyZqlUCW-19" value="" style="aspect=fixed;html=1;points=[];align=center;image;fontSize=12;image=img/lib/mscae/Docker.svg;" vertex="1" parent="1">
          <mxGeometry x="700" y="673.5" width="50" height="41" as="geometry" />
        </mxCell>
        <mxCell id="LAA-UziBqk9yYyZqlUCW-20" value="" style="html=1;dashed=0;whitespace=wrap;fillColor=#2875E2;strokeColor=#ffffff;points=[[0.005,0.63,0],[0.1,0.2,0],[0.9,0.2,0],[0.5,0,0],[0.995,0.63,0],[0.72,0.99,0],[0.5,1,0],[0.28,0.99,0]];shape=mxgraph.kubernetes.icon;prIcon=k_proxy;align=left;" vertex="1" parent="1">
          <mxGeometry x="770" y="520" width="50" height="48" as="geometry" />
        </mxCell>
        <mxCell id="LAA-UziBqk9yYyZqlUCW-21" value="" style="html=1;dashed=0;whitespace=wrap;fillColor=#2875E2;strokeColor=#ffffff;points=[[0.005,0.63,0],[0.1,0.2,0],[0.9,0.2,0],[0.5,0,0],[0.995,0.63,0],[0.72,0.99,0],[0.5,1,0],[0.28,0.99,0]];shape=mxgraph.kubernetes.icon;prIcon=api;align=left;" vertex="1" parent="1">
          <mxGeometry x="20" y="231" width="50" height="48" as="geometry" />
        </mxCell>
        <mxCell id="LAA-UziBqk9yYyZqlUCW-22" value="" style="html=1;dashed=0;whitespace=wrap;fillColor=#2875E2;strokeColor=#ffffff;points=[[0.005,0.63,0],[0.1,0.2,0],[0.9,0.2,0],[0.5,0,0],[0.995,0.63,0],[0.72,0.99,0],[0.5,1,0],[0.28,0.99,0]];shape=mxgraph.kubernetes.icon;prIcon=node;align=left;" vertex="1" parent="1">
          <mxGeometry x="570" y="462" width="50" height="48" as="geometry" />
        </mxCell>
        <mxCell id="LAA-UziBqk9yYyZqlUCW-23" value="" style="html=1;dashed=0;whitespace=wrap;fillColor=#2875E2;strokeColor=#ffffff;points=[[0.005,0.63,0],[0.1,0.2,0],[0.9,0.2,0],[0.5,0,0],[0.995,0.63,0],[0.72,0.99,0],[0.5,1,0],[0.28,0.99,0]];shape=mxgraph.kubernetes.icon;prIcon=sched;align=left;" vertex="1" parent="1">
          <mxGeometry x="20" y="321" width="50" height="48" as="geometry" />
        </mxCell>
        <mxCell id="LAA-UziBqk9yYyZqlUCW-24" value="" style="html=1;dashed=0;whitespace=wrap;fillColor=#2875E2;strokeColor=#ffffff;points=[[0.005,0.63,0],[0.1,0.2,0],[0.9,0.2,0],[0.5,0,0],[0.995,0.63,0],[0.72,0.99,0],[0.5,1,0],[0.28,0.99,0]];shape=mxgraph.kubernetes.icon;prIcon=c_m;align=left;" vertex="1" parent="1">
          <mxGeometry x="20" y="405" width="50" height="48" as="geometry" />
        </mxCell>
        <mxCell id="LAA-UziBqk9yYyZqlUCW-25" value="" style="html=1;dashed=0;whitespace=wrap;fillColor=#2875E2;strokeColor=#ffffff;points=[[0.005,0.63,0],[0.1,0.2,0],[0.9,0.2,0],[0.5,0,0],[0.995,0.63,0],[0.72,0.99,0],[0.5,1,0],[0.28,0.99,0]];shape=mxgraph.kubernetes.icon;prIcon=c_c_m;align=left;" vertex="1" parent="1">
          <mxGeometry x="20" y="430" width="50" height="48" as="geometry" />
        </mxCell>
        <mxCell id="LAA-UziBqk9yYyZqlUCW-26" value="Actor" style="shape=umlActor;verticalLabelPosition=bottom;verticalAlign=top;html=1;outlineConnect=0;" vertex="1" parent="1">
          <mxGeometry x="20" y="10" width="30" height="60" as="geometry" />
        </mxCell>
        <mxCell id="LAA-UziBqk9yYyZqlUCW-28" style="edgeStyle=orthogonalEdgeStyle;rounded=0;orthogonalLoop=1;jettySize=auto;html=1;entryX=0.25;entryY=0;entryDx=0;entryDy=0;" edge="1" parent="1" source="LAA-UziBqk9yYyZqlUCW-27" target="LAA-UziBqk9yYyZqlUCW-7">
          <mxGeometry relative="1" as="geometry" />
        </mxCell>
        <mxCell id="LAA-UziBqk9yYyZqlUCW-29" value="1a. Validates manifest manifest&lt;br&gt;1b .check its a authorized request" style="edgeLabel;html=1;align=center;verticalAlign=middle;resizable=0;points=[];" vertex="1" connectable="0" parent="LAA-UziBqk9yYyZqlUCW-28">
          <mxGeometry x="-0.2796" y="-1" relative="1" as="geometry">
            <mxPoint x="71" y="-11" as="offset" />
          </mxGeometry>
        </mxCell>
        <mxCell id="LAA-UziBqk9yYyZqlUCW-27" value="Deployment.yml" style="pointerEvents=1;shadow=0;dashed=0;html=1;strokeColor=none;fillColor=#505050;labelPosition=center;verticalLabelPosition=bottom;verticalAlign=top;outlineConnect=0;align=center;shape=mxgraph.office.concepts.document;" vertex="1" parent="1">
          <mxGeometry x="110" y="17" width="40" height="47" as="geometry" />
        </mxCell>
        <mxCell id="LAA-UziBqk9yYyZqlUCW-36" value="Dex" style="points=[[0.5,0,0],[0.765,0.48,0],[0.99,0.98,0],[0.5,1,0],[0.01,0.98,0],[0.235,0.48,0]];verticalLabelPosition=bottom;html=1;verticalAlign=top;aspect=fixed;align=center;pointerEvents=1;shape=mxgraph.cisco19.ldap;fillColor=#005073;strokeColor=none;" vertex="1" parent="1">
          <mxGeometry x="450" y="40" width="70.59" height="60" as="geometry" />
        </mxCell>
      </root>
    </mxGraphModel>
  </diagram>
</mxfile>
